<?xml version="1.0" encoding="utf-8"?>
<!-- Generator: Adobe Illustrator 16.0.3, SVG Export Plug-In . SVG Version: 6.00 Build 0)  -->
<!DOCTYPE svg PUBLIC "-//W3C//DTD SVG 1.1//EN" "http://www.w3.org/Graphics/SVG/1.1/DTD/svg11.dtd">
<svg version="1.1" id="Layer_1" xmlns="http://www.w3.org/2000/svg" xmlns:xlink="http://www.w3.org/1999/xlink" x="0px" y="0px"
	 width="80px" height="80px" viewBox="266 356 80 80" enable-background="new 266 356 80 80" xml:space="preserve">
<g>
	<path fill="#495057" d="M317.645,399.018c2.228-0.23,3.916-2.149,3.839-4.453c-0.077-2.307-1.996-4.149-4.301-4.149h-0.153
		c-2.381,0.077-4.226,2.074-4.148,4.455c0.076,1.152,0.536,2.152,1.229,2.843c-2.611,5.146-6.604,8.91-12.597,12.059
		c-4.071,2.152-8.296,2.92-12.521,2.381c-3.456-0.459-6.145-1.996-7.834-4.531c-2.458-3.764-2.689-7.836-0.615-11.905
		c1.459-2.919,3.765-5.069,5.224-6.145c-0.308-1-0.768-2.689-0.999-3.918c-11.138,8.064-9.985,18.972-6.605,24.118
		c2.535,3.84,7.681,6.223,13.365,6.223c1.536,0,3.073-0.154,4.608-0.537C305.968,413.535,313.417,407.697,317.645,399.018z"/>
	<path fill="#495057" d="M331.162,389.494c-5.838-6.837-14.44-10.602-24.272-10.602h-1.229c-0.691-1.383-2.15-2.304-3.764-2.304
		h-0.154c-2.381,0.077-4.225,2.075-4.147,4.456c0.077,2.305,1.997,4.146,4.302,4.146h0.154c1.689-0.076,3.149-1.151,3.764-2.611
		h1.383c5.837,0,11.367,1.69,16.359,4.993c3.843,2.534,6.607,5.839,8.144,9.831c1.306,3.227,1.229,6.375-0.153,9.064
		c-2.15,4.072-5.763,6.299-10.524,6.299c-3.072,0-5.989-0.922-7.528-1.613c-0.843,0.77-2.381,1.998-3.454,2.766
		c3.302,1.537,6.682,2.381,9.909,2.381c7.373,0,12.826-4.072,14.901-8.141C337.078,403.703,336.924,396.022,331.162,389.494
		L331.162,389.494z"/>
	<path fill="#495057" d="M292.142,400.324c0.076,2.305,1.997,4.148,4.301,4.148h0.154c2.381-0.076,4.225-2.076,4.147-4.457
		c-0.077-2.303-1.997-4.146-4.302-4.146h-0.153c-0.154,0-0.384,0-0.538,0.077c-3.149-5.224-4.455-10.909-3.993-17.055
		c0.307-4.608,1.844-8.603,4.531-11.905c2.229-2.843,6.529-4.226,9.448-4.301c8.142-0.153,11.6,9.984,11.83,14.056
		c0.997,0.231,2.688,0.768,3.839,1.152C320.485,365.451,312.804,359,305.43,359c-6.912,0-13.288,4.991-15.823,12.365
		c-3.533,9.834-1.229,19.281,3.072,26.732C292.295,398.633,292.064,399.48,292.142,400.324L292.142,400.324z"/>
</g>
<rect x="271.375" y="419.5" fill="none" width="69.25" height="14.75"/>
<text transform="matrix(1 0 0 1 278.5933 433.7402)" fill="#495057" font-family="'Lato-Black'" font-size="19">Redux</text>
</svg>
